<svg width="25" height="26" viewBox="0 0 25 26" fill="none" xmlns="http://www.w3.org/2000/svg">
<path d="M5.45628 14.6375L13.3219 22.7161C13.643 23.0459 13.7971 23.4306 13.7842 23.8702C13.7714 24.3099 13.6039 24.6946 13.2818 25.0243C12.9607 25.3266 12.5862 25.4848 12.1581 25.4991C11.7301 25.5134 11.3555 25.3551 11.0345 25.0243L0.439932 14.1429C0.279409 13.9781 0.165438 13.7994 0.0980178 13.6071C0.030598 13.4148 -0.00204153 13.2087 9.87841e-05 12.9888C0.00223909 12.769 0.0359485 12.5629 0.101228 12.3706C0.166507 12.1782 0.279945 11.9996 0.441538 11.8348L11.0361 0.95339C11.3304 0.651129 11.6985 0.5 12.1405 0.5C12.5824 0.5 12.9634 0.651129 13.2834 0.95339C13.6044 1.28313 13.765 1.67497 13.765 2.12891C13.765 2.58285 13.6044 2.97414 13.2834 3.30278L5.45628 11.3401H23.3948C23.8496 11.3401 24.2311 11.4984 24.5393 11.815C24.8475 12.1315 25.0011 12.5228 25 12.9888C24.9989 13.4549 24.8448 13.8467 24.5377 14.1644C24.2306 14.482 23.8496 14.6397 23.3948 14.6375H5.45628Z" fill="white" fill-opacity="0.7"/>
</svg>
