<svg width="25" height="26" viewBox="0 0 25 26" fill="none" xmlns="http://www.w3.org/2000/svg">
<path d="M19.5437 14.6375L11.6781 22.7161C11.357 23.0459 11.2029 23.4306 11.2158 23.8702C11.2286 24.3099 11.3961 24.6946 11.7182 25.0243C12.0393 25.3266 12.4138 25.4848 12.8419 25.4991C13.2699 25.5134 13.6445 25.3551 13.9655 25.0243L24.5601 14.1429C24.7206 13.9781 24.8346 13.7994 24.902 13.6071C24.9694 13.4148 25.002 13.2087 24.9999 12.9888C24.9978 12.769 24.9641 12.5629 24.8988 12.3706C24.8335 12.1782 24.7201 11.9996 24.5585 11.8348L13.9639 0.95339C13.6696 0.651129 13.3015 0.5 12.8595 0.5C12.4176 0.5 12.0366 0.651129 11.7166 0.95339C11.3956 1.28313 11.235 1.67497 11.235 2.12891C11.235 2.58285 11.3956 2.97414 11.7166 3.30278L19.5437 11.3401H1.60524C1.15042 11.3401 0.768913 11.4984 0.460709 11.815C0.152504 12.1315 -0.0010643 12.5228 5.72205e-06 12.9888C0.00107574 13.4549 0.155178 13.8467 0.462313 14.1644C0.769447 14.482 1.15042 14.6397 1.60524 14.6375H19.5437Z" fill="white" fill-opacity="0.7"/>
</svg>
